<?xml version="1.0" encoding="UTF-8" standalone="no"?>
<!DOCTYPE svg PUBLIC "-//W3C//DTD SVG 1.1//EN" "http://www.w3.org/Graphics/SVG/1.1/DTD/svg11.dtd">
<svg xmlns="http://www.w3.org/2000/svg" xmlns:xlink="http://www.w3.org/1999/xlink" version="1.1" width="1011.34207pt" height="444.84095pt" viewBox="0 0 1011.34207 444.84095">
<g enable-background="new">
<clipPath id="cp0">
<path transform="matrix(1,0,0,-1,-106.458,977.345)" d="M 0 0 L 1920 0 L 1920 1080 L 0 1080 Z "/>
</clipPath>
<g clip-path="url(#cp0)">
<path transform="matrix(1,0,0,-1,-106.458,977.345)" d="M 0 1080 L 1920 1080 L 1920 0 L 0 0 Z " fill="#ffffff"/>
<text fill="#942192" xml:space="preserve" transform="matrix(1 0 -0 1 102.542 165.34497)" font-size="70" font-family="Avenir" font-weight="bold"><tspan y="0" x="0 53.130006 71.33 107.66 147.84 175.06999 206.15 224.34999 251.57999">Diversity</tspan></text>
<text fill="#5e5e5e" xml:space="preserve" transform="matrix(0 -1 1 0 896.542 212.34497)" font-size="70" font-family="Avenir" font-weight="bold"><tspan y="0" x="0 42.77 86.87 127.05 145.25 172.48">Equity</tspan></text>
<text fill="#0096ff" xml:space="preserve" transform="matrix(1 0 -0 1 257.542 286.34498)" font-size="80" font-family="Avenir" font-weight="bold"><tspan y="0" x="0 22.240002 68.16 106.72 127.520008 173.44 208.96 229.76001 278.56">Inclusion</tspan></text>
<text fill="#008f00" xml:space="preserve" transform="matrix(1 0 -0 1 13.542 350.34498)" font-size="30" font-family="Avenir" font-weight="bold"><tspan y="0" x="0 27.780003 35.58 50.04 61.170003 79.47 95.58 114.48 133.38 144.51001 161.73001 175.05002 188.37003 196.17003 214.47003 231.69004">Microaggressions</tspan></text>
<text fill="#ff9300" xml:space="preserve" transform="matrix(1 0 -0 1 58.542 418.34498)" font-size="50" font-family="Avenir" font-weight="bold"><tspan y="0" x="0 30.55 50 63 88.950008 101.950008 114.950008 143.65001 175.15001">Privilege</tspan></text>
<text fill="#ff40ff" xml:space="preserve" transform="matrix(1 0 -0 1 16.542 275.34498)" font-size="30" font-family="Avenir" font-weight="bold"><tspan y="0" x="0 17.22 28.89 46.11 57.24 74.46 92.76 104.43 120 138.9 156.12">Stereotypes</tspan></text>
<text fill="#0433ff" xml:space="preserve" transform="matrix(1 0 -0 1 802.542 366.34498)" font-size="50" font-family="Avenir" font-weight="bold"><tspan y="0" x="0 36.100004 49.15 62.15 88.100009 110.30001 139.00002 152.00002">Allyship</tspan></text>
<text fill="#424242" xml:space="preserve" transform="matrix(0 -1 1 0 239.54199 304.34498)" font-size="25" font-family="Avenir" font-weight="bold"><tspan y="0" x="0 15.300001 28.725003 35.250005 41.750005 57.500005 70.925 80.675 87.175 102.425">Validation</tspan></text>
<text fill="#ff9300" xml:space="preserve" transform="matrix(0 -1 1 0 967.542 173.34497)" font-size="30" font-family="Avenir" font-weight="bold"><tspan y="0" x="0 22.770003 30.570004 43.890005 58.350008 75.57001 88.89001">Discuss</tspan></text>
<text fill="#ff2f92" xml:space="preserve" transform="matrix(1 0 -0 1 310.542 335.34498)" font-size="30" font-family="Avenir" font-weight="bold"><tspan y="0" x="0 18.900002 36.120004 53.910005 71.130008 85.590007">Re&#xfb02;ect</tspan></text>
<text fill="#0096ff" xml:space="preserve" transform="matrix(1 0 -0 1 229.54199 98.34497)" font-size="20" font-family="Avenir" font-weight="bold"><tspan y="0" x="0 12.600001 23.34 32.98">Race</tspan></text>
<text fill="#0433ff" xml:space="preserve" transform="matrix(1 0 -0 1 588.542 97.34497)" font-size="20" font-family="Avenir" font-weight="bold"><tspan y="0" x="0 15.560001 27.04 38.52 51.120004 62.600004">Gender</tspan></text>
<text fill="#008f00" xml:space="preserve" transform="matrix(1 0 -0 1 896.542 237.34497)" font-size="20" font-family="Avenir" font-weight="bold"><tspan y="0" x="0 12.22 19.64 31.84 43.32 55.52 67 78.479999">Pronouns</tspan></text>
<text fill="#ff9300" xml:space="preserve" transform="matrix(1 0 -0 1 602.542 217.34497)" font-size="30" font-family="Avenir" font-weight="bold"><tspan y="0" x="0 13.889999 31.109999 45.57 62.79 80.01 98.310009 106.11001 124.41001 143.31002">Technology</tspan></text>
<text fill="#0433ff" xml:space="preserve" transform="matrix(0 -1 1 0 497.542 369.34498)" font-size="30" font-family="Avenir" font-weight="bold"><tspan y="0" x="0 19.44 27.240002 43.350004">Bias</tspan></text>
<text fill="#008f00" xml:space="preserve" transform="matrix(1 0 -0 1 565.542 143.34497)" font-size="30" font-family="Avenir" font-weight="bold"><tspan y="0" x="0 17.22 32.79 46.11 57.780004 75 101.100009 108.90001 123.36001 132.24 140.58 157.8 175.02 193.92002 211.14002 227.25002 235.08002 242.88002 254.55002">Systemic Inequality</tspan></text>
<text fill="#ff2f92" xml:space="preserve" transform="matrix(1 0 -0 1 177.54199 51.34497)" font-size="50" font-family="Avenir" font-weight="bold"><tspan y="0" x="0 34.250005 64.75 108.25 139.75 168.45 187.9 216.59999 236.04999 250.84999 279.55 303.65 316.65 345.35 374.05003 398.15003">Computer Science</tspan></text>
<text fill="#008f00" xml:space="preserve" transform="matrix(1 0 -0 1 520.542 331.34498)" font-size="30" font-family="Avenir" font-weight="bold"><tspan y="0" x="0 18.900002 36.120004 49.440004 66.66 82.770008 93.9 108.36">Research</tspan></text>
<text fill="#ff9300" xml:space="preserve" transform="matrix(1 0 -0 1 406.542 193.34497)" font-size="20" font-family="Avenir" font-weight="bold"><tspan y="0" x="0 5.5600006 17.04 24.820002 36.300004 47.780004 55.580007 60.780008 72.98001">Intention</tspan></text>
<text fill="#009051" xml:space="preserve" transform="matrix(0 -1 1 0 127.542 101.34497)" font-size="20" font-family="Avenir" font-weight="bold"><tspan y="0" x="0 5.5600006 22.960003 35.560007 46.300004 55.940004">Impact</tspan></text>
<text fill="#ff2f92" xml:space="preserve" transform="matrix(1 0 -0 1 628.542 288.34498)" font-size="40" font-family="Avenir" font-weight="bold"><tspan y="0" x="0 11.120001 45.920007 71.12001 95.52001 113.280017 128.84001 153.24002 168.80002 180.64002 203.6 224.36002 247.32 272.52003 287.36003 311.76 346.56">Impostor Syndrome</tspan></text>
<text fill="#942193" xml:space="preserve" transform="matrix(1 0 -0 1 587.542 415.34498)" font-size="30" font-family="Avenir" font-weight="bold"><tspan y="0" x="0 8.340001 25.560002 37.230005 54.450006 66.12 79.44 96.66 111.12 122.82 130.62 148.92 166.14 182.25 190.08 197.88 209.55">Intersectionality</tspan></text>
<text fill="#ff40ff" xml:space="preserve" transform="matrix(0 -1 1 0 539.542 220.34497)" font-size="30" font-family="Avenir" font-weight="bold"><tspan y="0" x="0 21.660002 36.120004 52.230005 71.130008 88.350009 114.45001 122.250019">Academia</tspan></text>
<text fill="#ff40ff" xml:space="preserve" transform="matrix(1 0 -0 1 629.542 371.34498)" font-size="20" font-family="Avenir" font-weight="bold"><tspan y="0" x="0 13.700001 25.900002 43.300004 60.700006 72.18001 83.66 88.86 96.64">Community</tspan></text>
<text fill="#424242" xml:space="preserve" transform="matrix(1 0 -0 1 368.542 106.34497)" font-size="30" font-family="Avenir" font-weight="bold"><tspan y="0" x="0 17.22 35.52 49.980005 57.780004 75 86.67">Society</tspan></text>
<text fill="#424242" xml:space="preserve" transform="matrix(1 0 -0 1 324.542 408.34498)" font-size="30" font-family="Avenir" font-weight="bold"><tspan y="0" x="0 8.340001 25.560002 37.230005 54.450006 66.12 81.69 98.91 116.130008">Intervene</tspan></text>
<text fill="#ff2f92" xml:space="preserve" transform="matrix(1 0 -0 1 134.54199 214.34497)" font-size="30" font-family="Avenir" font-weight="bold"><tspan y="0" x="0 21.660002 34.980005">Ask</tspan></text>
<text fill="#ff40ff" xml:space="preserve" transform="matrix(1 0 -0 1 705.542 79.34497)" font-size="20" font-family="Avenir" font-weight="bold"><tspan y="0" x="0 12.600001 24.080002 36.680006 48.880006 56.660005 64.46 69.659999 81.14">Reporting</tspan></text>
<text fill="#0433ff" xml:space="preserve" transform="matrix(0 -1 1 0 65.542 224.34497)" font-size="30" font-family="Avenir" font-weight="bold"><tspan y="0" x="0 22.770003 30.570004 43.890005 62.790006 78.90001 90.57001 98.37001 110.07001 117.87001 135.09001">Disparities</tspan></text>
</g>
</g>
</svg>
